<svg width="83" height="82" viewBox="0 0 83 82" fill="none" xmlns="http://www.w3.org/2000/svg">
<path d="M81.9924 41C81.9924 63.3647 63.7525 81.5 41.2462 81.5C18.7399 81.5 0.5 63.3647 0.5 41C0.5 18.6353 18.7399 0.5 41.2462 0.5C63.7525 0.5 81.9924 18.6353 81.9924 41Z" fill="black" stroke="black"/>
<path d="M60 27H22C21.45 27 21 27.45 21 28V53C21 53.55 21.45 54 22 54H60C60.55 54 61 53.55 61 53V28C61 27.45 60.55 27 60 27ZM57.6 29L41 45.6L24.4 29H57.6ZM23 30.4L33.1 40.5L23 50.6V30.4ZM24.45 52L34.5 41.95L40.3 47.75C40.7 48.15 41.3 48.15 41.7 47.75L47.5 41.95L57.55 52H24.45ZM59 50.6L48.9 40.5L59 30.4V50.6Z" fill="white"/>
</svg>
