<svg width="83" height="82" viewBox="0 0 83 82" fill="none" xmlns="http://www.w3.org/2000/svg">
<path d="M81.8154 41C81.8154 63.3657 63.6141 81.5 41.1577 81.5C18.7013 81.5 0.5 63.3657 0.5 41C0.5 18.6343 18.7013 0.5 41.1577 0.5C63.6141 0.5 81.8154 18.6343 81.8154 41Z" fill="black" stroke="black"/>
<path d="M37.2846 55.5693C37.2846 55.3094 37.2229 55.0526 37.104 54.8173C36.985 54.5819 36.8117 54.3737 36.5963 54.2074C36.3809 54.0411 36.1287 53.9208 35.8576 53.855C35.5865 53.7891 35.3031 53.7794 35.0274 53.8264C32.5258 54.2522 29.3672 54.3162 28.5274 52.1286C27.7951 50.4344 26.5821 48.9554 25.0171 47.8486C24.9054 47.7923 24.799 47.7275 24.6989 47.6548C24.5619 47.3197 24.3186 47.031 24.0011 46.8268C23.6836 46.6225 23.3068 46.5124 22.9204 46.5108H22.911C22.4058 46.5106 21.921 46.6961 21.5628 47.0266C21.2047 47.3572 21.0023 47.8058 21 48.2744C20.9926 49.7195 22.5499 50.6455 23.1816 50.9587C23.9266 51.6529 24.5254 52.4699 24.9471 53.3679C25.6432 55.1817 27.6662 57.9335 33.4813 57.5787C33.4832 57.641 33.485 57.6999 33.486 57.7535L33.4943 58.2277C33.4943 58.6978 33.6957 59.1486 34.0541 59.4809C34.4124 59.8133 34.8985 60 35.4053 60C35.9122 60 36.3983 59.8133 36.7566 59.4809C37.115 59.1486 37.3164 58.6978 37.3164 58.2277L37.307 57.6635C37.2977 57.3277 37.2846 56.8413 37.2846 55.5693ZM57.6693 28.7622C57.73 28.5407 57.7897 28.2949 57.842 28.018C58.1511 26.043 57.8816 24.0272 57.0619 22.182C56.9585 21.9414 56.7995 21.7248 56.5963 21.5472C56.393 21.3696 56.1503 21.2354 55.8852 21.154C55.2049 20.9411 52.6931 20.5223 47.8894 23.3693C43.8965 22.4979 39.7399 22.4979 35.7469 23.3693C30.9628 20.564 28.464 20.9446 27.7903 21.1454C27.5186 21.2235 27.2693 21.357 27.0605 21.5361C26.8518 21.7152 26.6889 21.9353 26.5837 22.1804C25.7473 24.0611 25.4808 26.1179 25.813 28.1288C25.8597 28.3556 25.91 28.565 25.9623 28.7571C24.3792 30.7127 23.5359 33.098 23.5633 35.5432C23.5581 36.0888 23.5852 36.6342 23.6445 37.177C24.2827 45.3338 30.0158 47.7828 34.0104 48.6239C33.9273 48.8455 33.8517 49.0826 33.7845 49.3335C33.6648 49.7895 33.7449 50.271 34.0074 50.6722C34.2698 51.0735 34.6931 51.3619 35.1845 51.4742C35.6759 51.5864 36.1952 51.5134 36.6286 51.2711C37.062 51.0288 37.3741 50.637 37.4965 50.1816C37.618 49.5911 37.9297 49.0486 38.3904 48.6257C38.6689 48.3995 38.8706 48.1032 38.9709 47.7727C39.0711 47.4422 39.0657 47.0918 38.9551 46.7641C38.8446 46.4364 38.6338 46.1456 38.3483 45.927C38.0628 45.7084 37.715 45.5715 37.3472 45.5329C30.7464 44.8337 27.8808 42.3397 27.4497 36.8516C27.4019 36.417 27.3804 35.9801 27.3853 35.5432C27.3546 33.8005 27.9755 32.1016 29.1423 30.7353C29.2596 30.5929 29.3845 30.456 29.5165 30.3251C29.7505 30.0823 29.9078 29.7844 29.9712 29.4642C30.0345 29.1439 30.0015 28.8136 29.8758 28.5096C29.7468 28.1898 29.6476 27.8603 29.5791 27.5248C29.4234 26.5708 29.4744 25.5977 29.7293 24.6622C31.3902 25.0972 32.9534 25.8054 34.3443 26.7529C34.5744 26.895 34.8347 26.9895 35.1075 27.0302C35.3804 27.0708 35.6595 27.0565 35.926 26.9883C39.7883 26.0162 43.8603 26.0168 47.7223 26.9901C47.9902 27.0582 48.2708 27.0716 48.5448 27.0295C48.8188 26.9874 49.0797 26.8907 49.3095 26.746C50.694 25.7946 52.2506 25.0801 53.906 24.6363C54.1597 25.5493 54.2165 26.4997 54.0731 27.4331C54.0039 27.8009 53.8957 28.1615 53.7502 28.5096C53.6244 28.8137 53.5914 29.1439 53.6548 29.4642C53.7182 29.7845 53.8755 30.0824 54.1095 30.3251C54.2569 30.4792 54.4043 30.6453 54.5368 30.8011C55.6954 32.1443 56.3058 33.8236 56.2603 35.5432C56.2638 36.0033 56.2398 36.4632 56.1885 36.9208C55.7677 42.3362 52.8909 44.8319 46.2593 45.5329C45.8913 45.5717 45.5435 45.7089 45.258 45.9277C44.9726 46.1465 44.7618 46.4375 44.6514 46.7653C44.541 47.0931 44.5357 47.4437 44.6361 47.7742C44.7365 48.1048 44.9383 48.4012 45.217 48.6274C45.6921 49.0616 46.0045 49.6258 46.1081 50.2369C46.2373 50.7114 46.2966 51.1998 46.2845 51.689V55.8254C46.2658 56.9729 46.2658 57.833 46.2658 58.2276C46.2658 58.6977 46.4671 59.1485 46.8255 59.4808C47.1839 59.8132 47.67 59.9999 48.1768 59.9999C48.6836 59.9999 49.1697 59.8132 49.5281 59.4808C49.8864 59.1485 50.0878 58.6977 50.0878 58.2276C50.0878 57.8434 50.0878 57.0006 50.1065 55.8531V51.689C50.1218 50.9054 50.0223 50.1234 49.8107 49.3647C49.7501 49.1156 49.676 48.8695 49.5886 48.6274C52.4957 48.1795 55.1371 46.7895 57.0427 44.7047C58.9482 42.62 59.9943 39.9758 59.9946 37.2428C60.0576 36.6782 60.0869 36.1108 60.0824 35.5432C60.1248 33.0953 59.2745 30.7059 57.6693 28.7622Z" fill="white"/>
</svg>
