<svg width="83" height="82" viewBox="0 0 83 82" fill="none" xmlns="http://www.w3.org/2000/svg">
<path d="M81.8154 41C81.8154 63.3657 63.6141 81.5 41.1577 81.5C18.7013 81.5 0.5 63.3657 0.5 41C0.5 18.6343 18.7013 0.5 41.1577 0.5C63.6141 0.5 81.8154 18.6343 81.8154 41Z" fill="black" stroke="black"/>
<rect width="39.5114" height="39.36" transform="translate(21.402 21.3198)" fill="black"/>
<path d="M34.2432 24.5996H48.0722C53.3404 24.5996 57.6208 28.8636 57.6208 34.1116V47.8876C57.6208 50.4103 56.6147 52.8298 54.824 54.6136C53.0333 56.3975 50.6046 57.3996 48.0722 57.3996H34.2432C28.975 57.3996 24.6946 53.1356 24.6946 47.8876V34.1116C24.6946 31.5889 25.7006 29.1695 27.4913 27.3856C29.282 25.6018 31.7107 24.5996 34.2432 24.5996ZM33.9139 27.8796C32.3421 27.8796 30.8346 28.5016 29.7231 29.6089C28.6116 30.7161 27.9872 32.2178 27.9872 33.7836V48.2156C27.9872 51.4792 30.6378 54.1196 33.9139 54.1196H48.4014C49.9733 54.1196 51.4808 53.4976 52.5922 52.3904C53.7037 51.2832 54.3281 49.7814 54.3281 48.2156V33.7836C54.3281 30.52 51.6776 27.8796 48.4014 27.8796H33.9139ZM49.8008 30.3396C50.3466 30.3396 50.87 30.5556 51.2559 30.94C51.6419 31.3245 51.8587 31.8459 51.8587 32.3896C51.8587 32.9333 51.6419 33.4547 51.2559 33.8392C50.87 34.2236 50.3466 34.4396 49.8008 34.4396C49.255 34.4396 48.7316 34.2236 48.3456 33.8392C47.9597 33.4547 47.7429 32.9333 47.7429 32.3896C47.7429 31.8459 47.9597 31.3245 48.3456 30.94C48.7316 30.5556 49.255 30.3396 49.8008 30.3396ZM41.1577 32.7996C43.3408 32.7996 45.4345 33.6635 46.9782 35.2013C48.522 36.7391 49.3892 38.8248 49.3892 40.9996C49.3892 43.1744 48.522 45.2601 46.9782 46.7979C45.4345 48.3357 43.3408 49.1996 41.1577 49.1996C38.9745 49.1996 36.8808 48.3357 35.3371 46.7979C33.7934 45.2601 32.9261 43.1744 32.9261 40.9996C32.9261 38.8248 33.7934 36.7391 35.3371 35.2013C36.8808 33.6635 38.9745 32.7996 41.1577 32.7996ZM41.1577 36.0796C39.8478 36.0796 38.5916 36.598 37.6653 37.5206C36.7391 38.4433 36.2187 39.6947 36.2187 40.9996C36.2187 42.3045 36.7391 43.5559 37.6653 44.4786C38.5916 45.4013 39.8478 45.9196 41.1577 45.9196C42.4676 45.9196 43.7238 45.4013 44.65 44.4786C45.5762 43.5559 46.0966 42.3045 46.0966 40.9996C46.0966 39.6947 45.5762 38.4433 44.65 37.5206C43.7238 36.598 42.4676 36.0796 41.1577 36.0796Z" fill="white"/>
</svg>
