<svg width="83" height="82" viewBox="0 0 83 82" fill="none" xmlns="http://www.w3.org/2000/svg">
<path d="M82.3723 41C82.3723 63.3657 64.1711 81.5 41.7146 81.5C19.2582 81.5 1.05695 63.3657 1.05695 41C1.05695 18.6343 19.2582 0.5 41.7146 0.5C64.1711 0.5 82.3723 18.6343 82.3723 41Z" fill="black" stroke="black"/>
<rect width="39.5114" height="39.36" transform="translate(21.9589 21.3198)" fill="black"/>
<path d="M33.3843 29.5199C33.3839 30.3898 33.0365 31.2239 32.4188 31.8388C31.801 32.4536 30.9633 32.7987 30.09 32.7983C29.2168 32.7978 28.3795 32.4519 27.7623 31.8364C27.1451 31.221 26.7986 30.3866 26.7991 29.5166C26.7995 28.6467 27.1468 27.8126 27.7646 27.1978C28.3824 26.583 29.2201 26.2378 30.0933 26.2383C30.9666 26.2387 31.8039 26.5847 32.4211 27.2001C33.0383 27.8156 33.3847 28.65 33.3843 29.5199ZM33.4831 35.2271H26.8979V55.7599H33.4831V35.2271ZM43.8877 35.2271H37.3354V55.7599H43.8219V44.9851C43.8219 38.9827 51.6748 38.4251 51.6748 44.9851V55.7599H58.1777V42.7547C58.1777 32.6359 46.5548 33.0131 43.8219 37.9823L43.8877 35.2271Z" fill="white"/>
</svg>
