<svg width="238" height="70" viewBox="0 0 238 70" fill="none" xmlns="http://www.w3.org/2000/svg">
<path d="M24.768 68.736C19.52 68.736 14.784 67.904 10.56 66.24C6.336 64.512 2.816 62.016 0 58.752L12.192 44.352C13.984 46.528 15.744 48.192 17.472 49.344C19.2 50.432 20.992 50.976 22.848 50.976C27.712 50.976 30.144 48.192 30.144 42.624V17.088H7.296V0H52.512V41.28C52.512 50.496 50.144 57.376 45.408 61.92C40.672 66.464 33.792 68.736 24.768 68.736Z" fill="black"/>
<path d="M69.621 67.2L41.205 0H65.589L88.725 56.736H74.229L98.037 0H120.309L91.893 67.2H69.621Z" fill="black"/>
<path d="M137.224 26.36C136.008 26.36 134.867 26.0827 133.8 25.528C132.755 24.952 131.912 24.1627 131.272 23.16L132.264 22.072C132.883 22.9893 133.608 23.6933 134.44 24.184C135.293 24.6533 136.221 24.888 137.224 24.888C140.189 24.888 141.672 23.128 141.672 19.608V5.272H133.416V3.8H143.304V19.608C143.304 21.848 142.792 23.5333 141.768 24.664C140.744 25.7947 139.229 26.36 137.224 26.36Z" fill="black"/>
<path d="M156.943 26.328C155.343 26.328 153.913 25.9653 152.655 25.24C151.417 24.5147 150.425 23.512 149.679 22.232C148.953 20.952 148.591 19.4907 148.591 17.848C148.591 16.184 148.953 14.7227 149.679 13.464C150.425 12.184 151.417 11.1813 152.655 10.456C153.913 9.73067 155.343 9.368 156.943 9.368C158.543 9.368 159.972 9.73067 161.231 10.456C162.489 11.1813 163.481 12.184 164.207 13.464C164.932 14.7227 165.295 16.184 165.295 17.848C165.295 19.4907 164.932 20.952 164.207 22.232C163.481 23.512 162.489 24.5147 161.231 25.24C159.972 25.9653 158.543 26.328 156.943 26.328ZM156.943 24.888C158.223 24.888 159.375 24.6 160.399 24.024C161.423 23.4267 162.223 22.5947 162.799 21.528C163.375 20.4613 163.663 19.2347 163.663 17.848C163.663 16.44 163.375 15.2133 162.799 14.168C162.223 13.1013 161.423 12.28 160.399 11.704C159.375 11.1067 158.223 10.808 156.943 10.808C155.663 10.808 154.511 11.1067 153.487 11.704C152.484 12.28 151.684 13.1013 151.087 14.168C150.511 15.2133 150.223 16.44 150.223 17.848C150.223 19.2347 150.511 20.4613 151.087 21.528C151.684 22.5947 152.484 23.4267 153.487 24.024C154.511 24.6 155.663 24.888 156.943 24.888Z" fill="black"/>
<path d="M180.724 26.2V22.392L180.66 21.816V15.544C180.66 13.9867 180.233 12.8027 179.38 11.992C178.548 11.1813 177.321 10.776 175.7 10.776C174.548 10.776 173.471 10.9787 172.468 11.384C171.487 11.768 170.644 12.2693 169.94 12.888L169.14 11.736C169.972 10.9893 170.975 10.4133 172.148 10.008C173.321 9.58134 174.548 9.368 175.828 9.368C177.897 9.368 179.487 9.89067 180.596 10.936C181.705 11.9813 182.26 13.5387 182.26 15.608V26.2H180.724ZM174.708 26.328C173.471 26.328 172.393 26.136 171.476 25.752C170.58 25.3467 169.887 24.7813 169.396 24.056C168.927 23.3307 168.692 22.4987 168.692 21.56C168.692 20.7067 168.884 19.9387 169.268 19.256C169.673 18.552 170.335 17.9867 171.252 17.56C172.169 17.112 173.396 16.888 174.932 16.888H181.076V18.136H174.964C173.236 18.136 172.02 18.456 171.316 19.096C170.633 19.736 170.292 20.536 170.292 21.496C170.292 22.5627 170.697 23.416 171.508 24.056C172.319 24.696 173.46 25.016 174.932 25.016C176.34 25.016 177.524 24.696 178.484 24.056C179.465 23.416 180.191 22.488 180.66 21.272L181.108 22.36C180.66 23.576 179.892 24.5467 178.804 25.272C177.737 25.976 176.372 26.328 174.708 26.328ZM177.876 6.52C177.407 6.52 176.98 6.41334 176.596 6.2C176.233 5.96534 175.903 5.70934 175.604 5.432C175.305 5.13334 175.007 4.87734 174.708 4.664C174.409 4.42934 174.089 4.312 173.748 4.312C173.257 4.312 172.863 4.504 172.564 4.888C172.265 5.25067 172.095 5.752 172.052 6.392H170.996C171.039 5.432 171.295 4.664 171.764 4.088C172.255 3.49067 172.884 3.192 173.652 3.192C174.121 3.192 174.537 3.30934 174.9 3.544C175.284 3.75734 175.625 4.01334 175.924 4.312C176.244 4.58934 176.543 4.84534 176.82 5.08C177.119 5.29334 177.439 5.4 177.78 5.4C178.271 5.4 178.665 5.21867 178.964 4.856C179.284 4.472 179.455 3.98134 179.476 3.384H180.532C180.511 4.30134 180.255 5.05867 179.764 5.656C179.273 6.232 178.644 6.52 177.876 6.52Z" fill="black"/>
<path d="M195.38 26.328C193.78 26.328 192.351 25.9653 191.092 25.24C189.855 24.5147 188.863 23.512 188.116 22.232C187.391 20.952 187.028 19.4907 187.028 17.848C187.028 16.184 187.391 14.7227 188.116 13.464C188.863 12.184 189.855 11.1813 191.092 10.456C192.351 9.73067 193.78 9.368 195.38 9.368C196.98 9.368 198.41 9.73067 199.668 10.456C200.927 11.1813 201.919 12.184 202.644 13.464C203.37 14.7227 203.732 16.184 203.732 17.848C203.732 19.4907 203.37 20.952 202.644 22.232C201.919 23.512 200.927 24.5147 199.668 25.24C198.41 25.9653 196.98 26.328 195.38 26.328ZM195.38 24.888C196.66 24.888 197.812 24.6 198.836 24.024C199.86 23.4267 200.66 22.5947 201.236 21.528C201.812 20.4613 202.1 19.2347 202.1 17.848C202.1 16.44 201.812 15.2133 201.236 14.168C200.66 13.1013 199.86 12.28 198.836 11.704C197.812 11.1067 196.66 10.808 195.38 10.808C194.1 10.808 192.948 11.1067 191.924 11.704C190.922 12.28 190.122 13.1013 189.524 14.168C188.948 15.2133 188.66 16.44 188.66 17.848C188.66 19.2347 188.948 20.4613 189.524 21.528C190.122 22.5947 190.922 23.4267 191.924 24.024C192.948 24.6 194.1 24.888 195.38 24.888Z" fill="black"/>
<path d="M141.48 63.2L131.496 40.8H133.288L142.824 62.208H141.832L151.4 40.8H153.096L143.112 63.2H141.48Z" fill="black"/>
<path d="M165.443 63.2V59.392L165.379 58.816V52.544C165.379 50.9867 164.952 49.8027 164.099 48.992C163.267 48.1813 162.04 47.776 160.419 47.776C159.267 47.776 158.189 47.9787 157.187 48.384C156.205 48.768 155.363 49.2693 154.659 49.888L153.859 48.736C154.691 47.9893 155.693 47.4133 156.867 47.008C158.04 46.5813 159.267 46.368 160.547 46.368C162.616 46.368 164.205 46.8907 165.315 47.936C166.424 48.9813 166.979 50.5387 166.979 52.608V63.2H165.443ZM159.427 63.328C158.189 63.328 157.112 63.136 156.195 62.752C155.299 62.3467 154.605 61.7813 154.115 61.056C153.645 60.3307 153.411 59.4987 153.411 58.56C153.411 57.7067 153.603 56.9387 153.987 56.256C154.392 55.552 155.053 54.9867 155.971 54.56C156.888 54.112 158.115 53.888 159.651 53.888H165.795V55.136H159.683C157.955 55.136 156.739 55.456 156.035 56.096C155.352 56.736 155.011 57.536 155.011 58.496C155.011 59.5627 155.416 60.416 156.227 61.056C157.037 61.696 158.179 62.016 159.651 62.016C161.059 62.016 162.243 61.696 163.203 61.056C164.184 60.416 164.909 59.488 165.379 58.272L165.827 59.36C165.379 60.576 164.611 61.5467 163.523 62.272C162.456 62.976 161.091 63.328 159.427 63.328Z" fill="black"/>
<path d="M173.571 63.2V46.496H175.107V51.072L174.947 50.56C175.416 49.216 176.206 48.1813 177.315 47.456C178.424 46.7307 179.811 46.368 181.475 46.368V47.936C181.411 47.936 181.347 47.936 181.283 47.936C181.219 47.9147 181.155 47.904 181.091 47.904C179.235 47.904 177.784 48.4907 176.739 49.664C175.694 50.816 175.171 52.4267 175.171 54.496V63.2H173.571Z" fill="black"/>
<path d="M192.671 69.536C191.157 69.536 189.717 69.3013 188.351 68.832C186.986 68.3627 185.877 67.712 185.023 66.88L185.887 65.664C186.719 66.432 187.711 67.0293 188.863 67.456C190.037 67.8827 191.295 68.096 192.639 68.096C194.879 68.096 196.522 67.5733 197.567 66.528C198.634 65.4827 199.167 63.84 199.167 61.6V56.96L199.487 54.464L199.231 51.968V46.496H200.767V61.408C200.767 64.2027 200.085 66.2507 198.719 67.552C197.375 68.8747 195.359 69.536 192.671 69.536ZM192.223 62.592C190.645 62.592 189.226 62.2507 187.967 61.568C186.73 60.864 185.738 59.904 184.991 58.688C184.266 57.4507 183.903 56.0427 183.903 54.464C183.903 52.864 184.266 51.456 184.991 50.24C185.738 49.024 186.73 48.0747 187.967 47.392C189.226 46.7093 190.645 46.368 192.223 46.368C193.738 46.368 195.093 46.6987 196.287 47.36C197.503 48 198.463 48.928 199.167 50.144C199.871 51.3387 200.223 52.7787 200.223 54.464C200.223 56.128 199.871 57.568 199.167 58.784C198.463 60 197.503 60.9387 196.287 61.6C195.093 62.2613 193.738 62.592 192.223 62.592ZM192.351 61.152C193.695 61.152 194.879 60.8747 195.903 60.32C196.927 59.744 197.727 58.9547 198.303 57.952C198.901 56.928 199.199 55.7653 199.199 54.464C199.199 53.1413 198.901 51.9787 198.303 50.976C197.727 49.9733 196.927 49.1947 195.903 48.64C194.879 48.0853 193.695 47.808 192.351 47.808C191.05 47.808 189.877 48.0853 188.831 48.64C187.807 49.1947 186.997 49.9733 186.399 50.976C185.823 51.9787 185.535 53.1413 185.535 54.464C185.535 55.7653 185.823 56.928 186.399 57.952C186.997 58.9547 187.807 59.744 188.831 60.32C189.877 60.8747 191.05 61.152 192.351 61.152Z" fill="black"/>
<path d="M218.068 63.2V59.392L218.004 58.816V52.544C218.004 50.9867 217.577 49.8027 216.724 48.992C215.892 48.1813 214.665 47.776 213.044 47.776C211.892 47.776 210.814 47.9787 209.812 48.384C208.83 48.768 207.988 49.2693 207.284 49.888L206.484 48.736C207.316 47.9893 208.318 47.4133 209.492 47.008C210.665 46.5813 211.892 46.368 213.172 46.368C215.241 46.368 216.83 46.8907 217.94 47.936C219.049 48.9813 219.604 50.5387 219.604 52.608V63.2H218.068ZM212.052 63.328C210.814 63.328 209.737 63.136 208.82 62.752C207.924 62.3467 207.23 61.7813 206.74 61.056C206.27 60.3307 206.036 59.4987 206.036 58.56C206.036 57.7067 206.228 56.9387 206.612 56.256C207.017 55.552 207.678 54.9867 208.596 54.56C209.513 54.112 210.74 53.888 212.276 53.888H218.42V55.136H212.308C210.58 55.136 209.364 55.456 208.66 56.096C207.977 56.736 207.636 57.536 207.636 58.496C207.636 59.5627 208.041 60.416 208.852 61.056C209.662 61.696 210.804 62.016 212.276 62.016C213.684 62.016 214.868 61.696 215.828 61.056C216.809 60.416 217.534 59.488 218.004 58.272L218.452 59.36C218.004 60.576 217.236 61.5467 216.148 62.272C215.081 62.976 213.716 63.328 212.052 63.328Z" fill="black"/>
<path d="M230.42 63.328C229.033 63.328 227.732 63.1253 226.516 62.72C225.321 62.3147 224.393 61.8027 223.732 61.184L224.468 59.904C225.108 60.4587 225.961 60.9387 227.028 61.344C228.095 61.728 229.247 61.92 230.484 61.92C232.233 61.92 233.492 61.632 234.26 61.056C235.028 60.48 235.412 59.7227 235.412 58.784C235.412 58.1013 235.209 57.568 234.804 57.184C234.42 56.7787 233.897 56.4693 233.236 56.256C232.575 56.0427 231.849 55.872 231.06 55.744C230.271 55.5947 229.481 55.4347 228.692 55.264C227.903 55.0933 227.177 54.848 226.516 54.528C225.855 54.208 225.321 53.7707 224.916 53.216C224.532 52.64 224.34 51.8827 224.34 50.944C224.34 50.0907 224.575 49.3227 225.044 48.64C225.513 47.9573 226.217 47.4133 227.156 47.008C228.095 46.5813 229.268 46.368 230.676 46.368C231.721 46.368 232.767 46.5173 233.812 46.816C234.879 47.1147 235.743 47.5093 236.404 48L235.668 49.28C234.964 48.7467 234.175 48.3627 233.3 48.128C232.425 47.8933 231.54 47.776 230.644 47.776C229.023 47.776 227.828 48.0747 227.06 48.672C226.313 49.2693 225.94 50.016 225.94 50.912C225.94 51.616 226.132 52.1813 226.516 52.608C226.921 53.0133 227.455 53.3333 228.116 53.568C228.777 53.7813 229.503 53.9627 230.292 54.112C231.081 54.24 231.871 54.3893 232.66 54.56C233.449 54.7307 234.175 54.976 234.836 55.296C235.497 55.5947 236.02 56.0213 236.404 56.576C236.809 57.1093 237.012 57.8347 237.012 58.752C237.012 59.6693 236.756 60.4693 236.244 61.152C235.753 61.8347 235.017 62.368 234.036 62.752C233.055 63.136 231.849 63.328 230.42 63.328Z" fill="black"/>
</svg>
